<svg xmlns="http://www.w3.org/2000/svg" xmlns:xlink="http://www.w3.org/1999/xlink" width="500" zoomAndPan="magnify" viewBox="0 0 375 374.999991" height="500" preserveAspectRatio="xMidYMid meet" version="1.2"><defs><clipPath id="bb89c43d31"><path d="M 81 269 L 213 269 L 213 328.453125 L 81 328.453125 Z M 81 269 "/></clipPath></defs><g id="897eee6b39"><path style=" stroke:none;fill-rule:evenodd;fill:#242424;fill-opacity:1;" d="M 188.199219 211.117188 C 147.371094 205.339844 34.492188 213.355469 62.121094 249.578125 C 63.652344 251.597656 66.027344 254.007812 67.980469 255.628906 C 69.859375 257.167969 79.546875 264.714844 87.09375 261.851562 C 146.804688 227.730469 249.453125 254.792969 241.605469 291.253906 C 239.019531 303.199219 225.355469 312.097656 210.621094 317.550781 C 210.640625 317.628906 210.621094 317.71875 210.640625 317.785156 C 215.28125 316.339844 216.746094 315.789062 221.195312 314.058594 C 231.902344 309.472656 232.996094 308.988281 240.195312 305.121094 C 245.046875 302.265625 251.449219 298.335938 256.128906 295.21875 C 302.671875 259.867188 257.808594 220.992188 188.199219 211.117188 "/><path style=" stroke:none;fill-rule:evenodd;fill:#242424;fill-opacity:1;" d="M 96.125 192.199219 C 216.308594 171.5625 316.417969 223.21875 286.949219 271.382812 C 287.054688 271.480469 287.179688 271.554688 287.285156 271.65625 C 293.835938 263.453125 298.914062 256.359375 306.027344 242.957031 L 308.964844 236.953125 C 340.242188 154.589844 139.226562 129.886719 83.863281 152.222656 C 71.828125 157.070312 66.398438 169.90625 71.8125 180.816406 C 74.25 185.753906 80.667969 193.789062 96.125 192.199219 "/><path style=" stroke:none;fill-rule:evenodd;fill:#242424;fill-opacity:1;" d="M 209.78125 128.292969 C 223.488281 130.933594 236.503906 134.398438 248.445312 138.621094 C 260.324219 142.832031 271.203125 147.785156 280.601562 153.40625 C 290.007812 159.023438 297.9375 165.308594 304.09375 172.179688 C 306.96875 175.375 309.339844 178.621094 311.25 181.867188 C 313.203125 185.085938 314.632812 188.359375 315.65625 191.617188 C 316.664062 194.863281 317.210938 198.113281 317.339844 201.339844 C 317.402344 202.699219 317.320312 204.027344 317.214844 205.355469 C 317.277344 205.371094 317.339844 205.40625 317.425781 205.417969 C 319.421875 193.910156 319.921875 189.769531 320.386719 176.636719 C 320.238281 171.984375 320.21875 165.765625 319.878906 161.113281 C 318.328125 151.65625 313.667969 122.886719 253.632812 100.085938 C 252.6875 99.726562 159.277344 66.359375 143.132812 93.972656 C 141.203125 97.269531 140.46875 102.273438 141.390625 105.867188 C 142.457031 110.097656 147.101562 120.242188 166.976562 122.929688 C 181.714844 123.824219 196.097656 125.648438 209.78125 128.292969 "/><path style=" stroke:none;fill-rule:evenodd;fill:#242424;fill-opacity:1;" d="M 245.320312 79.582031 C 251.425781 81.667969 257.265625 83.957031 262.804688 86.433594 C 268.304688 88.898438 273.488281 91.5625 278.316406 94.40625 C 283.125 97.238281 287.554688 100.261719 291.5625 103.4375 C 295.570312 106.625 299.164062 109.957031 302.289062 113.453125 C 303.675781 115.023438 304.953125 116.605469 306.109375 118.183594 C 307.285156 119.757812 308.335938 121.339844 309.238281 122.949219 C 309.464844 123.3125 309.613281 123.691406 309.84375 124.058594 C 309.859375 123.453125 303.292969 106.441406 297.308594 95.964844 C 293.613281 89.46875 289.917969 82.835938 278.054688 73.085938 C 274.507812 70.148438 270.4375 67.492188 266.152344 64.9375 C 261.785156 62.378906 257.125 59.980469 252.171875 57.75 C 247.199219 55.519531 241.949219 53.460938 236.449219 51.570312 C 217.914062 46.460938 219.632812 57.230469 221.714844 61.410156 C 222.964844 63.949219 228.378906 72.789062 245.320312 79.582031 "/><g clip-rule="nonzero" clip-path="url(#bb89c43d31)"><path style=" stroke:none;fill-rule:evenodd;fill:#242424;fill-opacity:1;" d="M 165.277344 270.53125 C 138.910156 267.476562 66.453125 274.460938 84.808594 297.308594 C 85.820312 298.589844 87.390625 300.097656 88.675781 301.097656 C 89.90625 302.0625 96.261719 306.757812 101.0625 304.800781 C 153.917969 272.792969 224.40625 304.492188 164.957031 328.191406 C 164.957031 328.242188 164.957031 328.296875 164.957031 328.339844 C 228.464844 306.789062 229.007812 277.945312 165.277344 270.53125 "/></g></g></svg>